<?xml version="1.0" encoding="utf-8"?>
<!-- Generator: Adobe Illustrator 20.1.0, SVG Export Plug-In . SVG Version: 6.00 Build 0)  -->
<svg version="1.1" id="Layer_1" xmlns="http://www.w3.org/2000/svg" xmlns:xlink="http://www.w3.org/1999/xlink" x="0px" y="0px"
	 viewBox="0 0 190.6 54.5" style="enable-background:new 0 0 190.6 54.5;" xml:space="preserve">
<g>
	<g>
		<g>
			<path d="M13.9,43c0,3.2-1.3,7.5-5.2,7.5c-1.9,0-3.1-1-3.1-3C5.6,43.7,11.1,43,13.9,43 M19.4,53.9V36.3c0-5.7-3.8-7.7-9-7.7
				S1,30.8,1,36.5h5.6c0-2.5,1.3-3.8,3.8-3.8c2.9,0,3.5,2.1,3.5,4.5v2.5C8.2,39.8,0,40.5,0,48c0,4.2,3.3,6.5,7.3,6.5
				c2.7,0,5.2-0.9,6.5-3.4h0.1V54L19.4,53.9 M36.6,37.6h6.2c0-6.1-3.4-9.1-9.4-9.1C26,28.5,22,33.2,22,40.4
				c0,8.7,4.4,14.1,13.3,14.1c2.5,0,4.9-0.4,7.3-1.1v-3.5c-1.4,0.5-2.8,0.6-4.2,0.6c-6.6,0-10.2-4.8-10.2-11c0-3,1.1-6.8,4.7-6.8
				C35.8,32.6,36.6,35.1,36.6,37.6 M58.8,37.6H65c0-6.1-3.4-9.1-9.4-9.1c-7.5,0-11.4,4.7-11.4,11.9c0,8.7,4.4,14.1,13.3,14.1
				c2.4,0,4.9-0.4,7.2-1.1v-3.5c-1.4,0.5-2.8,0.6-4.2,0.6c-6.6,0-10.2-4.8-10.2-11c0-3,1.1-6.8,4.8-6.8
				C58.1,32.6,58.8,35.1,58.8,37.6 M81.5,36.5h-9.1c0.3-2.5,2.2-4.3,4.7-4.3C79.7,32.2,81.5,33.9,81.5,36.5 M86.9,40v-1.4
				c0-6-3.1-10.1-9.4-10.1c-7.4,0-10.6,4.6-10.6,11.7c0,8.2,3.7,14.3,12.5,14.3c2.4,0,4.7-0.3,6.9-1v-4c-1.5,0.5-3.2,0.9-4.7,0.9
				c-5.6,0-9.3-5.2-9.3-10.4H86.9 M104.1,53.9h5.8V36.7c0-4.3-2-8.2-6.7-8.2c-3.5,0-6,2-7.4,5.2h-0.1V29h-5.8v24.8h5.8V43.2
				c0-3.3,1.7-9.2,5.8-9.2c0.6,0,1.2,0,1.7,0.5c1,0.9,0.9,4.1,0.9,5.3L104.1,53.9 M121.9,33.1h7.4v-4h-7.4v-8.2l-5.8,2.3v5.9h-4.9v4
				h4.9v14.5c0,5.2,2.5,6.8,7.6,6.8c1.6,0,3.2-0.2,4.7-0.4v-4c-0.9,0.2-1.8,0.4-2.7,0.4c-3.6,0-3.9-2.7-3.9-5.6V33.1 M146,53.9h5.8
				V29.1H146v10.7c0,3.3-1.7,9.2-5.8,9.2c-0.6,0-1.3,0-1.7-0.5c-1-0.9-0.9-4.1-0.9-5.3V29.1h-5.8v17.2c0,4.3,2,8.2,6.7,8.2
				c3.5,0,6.1-2.1,7.4-5.2h0.1V53.9 M161.3,43c0-5.8,2.2-8.4,8.1-8.4v-6.1c-4.2,0-6.1,1.7-8,5.2h-0.1v-4.6h-5.8v24.8h5.8V43
				 M185.2,36.5h-9.1c0.3-2.5,2.2-4.3,4.7-4.3C183.4,32.2,185.2,33.9,185.2,36.5 M190.6,40v-1.4c0-6-3.1-10.1-9.4-10.1
				c-7.4,0-10.6,4.6-10.6,11.7c0,8.2,3.7,14.3,12.5,14.3c2.3,0,4.7-0.3,6.9-1v-4c-1.5,0.5-3.2,0.9-4.7,0.9c-5.6,0-9.3-5.2-9.3-10.4
				H190.6"/>
			<path d="M111.3,0v4.1c0,0,11.6,4.5,13.2,5.1c-1.7,0.6-13.2,5.1-13.2,5.1v4.1l18-7.3V7.3L111.3,0"/>
		</g>
	</g>
</g>
</svg>
